<svg 
  xmlns="http://www.w3.org/2000/svg"
  width="162.12" height="18.88"
  viewBox="0 0 162.12 18.88">
  <g id="svgGroup" stroke-linecap="round" 
    fill-rule="evenodd" font-size="9pt" 
    stroke="#000" stroke-width="0.25mm" 
    fill="#000" style="stroke:#000;stroke-width:0.25mm;fill:#4A6CF7">
    <!-- Text -->
    <path d="M 65.26 14.24 L 63.46 14.24 L 63.46 3.84 L 65.2 3.84 L 65.2 5.58 Q 65.76 4.74 66.62 4.17 A 3.441 3.441 0 0 1 68.46 3.602 A 4.171 4.171 0 0 1 68.58 3.6 Q 69.82 3.6 70.61 4.2 A 3.15 3.15 0 0 1 71.7 5.738 A 3.831 3.831 0 0 1 71.72 5.8 Q 72.34 4.88 73.19 4.24 A 3.134 3.134 0 0 1 74.548 3.663 A 4.289 4.289 0 0 1 75.3 3.6 Q 76.685 3.6 77.493 4.31 A 2.599 2.599 0 0 1 77.83 4.67 A 3.798 3.798 0 0 1 78.512 6.124 Q 78.66 6.734 78.66 7.46 L 78.66 14.24 L 76.86 14.24 L 76.86 7.6 A 3.809 3.809 0 0 0 76.793 6.862 Q 76.705 6.421 76.506 6.072 A 2.196 2.196 0 0 0 76.36 5.85 A 1.595 1.595 0 0 0 75.197 5.191 A 2.136 2.136 0 0 0 74.98 5.18 A 2.385 2.385 0 0 0 73.628 5.605 A 3.199 3.199 0 0 0 73.31 5.85 Q 72.54 6.52 71.96 7.42 L 71.96 14.24 L 70.16 14.24 L 70.16 7.6 A 3.809 3.809 0 0 0 70.093 6.862 Q 70.005 6.421 69.806 6.072 A 2.196 2.196 0 0 0 69.66 5.85 A 1.595 1.595 0 0 0 68.497 5.191 A 2.136 2.136 0 0 0 68.28 5.18 A 2.404 2.404 0 0 0 67.016 5.546 A 3.249 3.249 0 0 0 66.62 5.83 Q 65.84 6.48 65.26 7.36 L 65.26 14.24 Z M 138.66 14.24 L 136.86 14.24 L 136.86 3.84 L 138.6 3.84 L 138.6 5.58 Q 139.16 4.74 140.02 4.17 A 3.441 3.441 0 0 1 141.86 3.602 A 4.171 4.171 0 0 1 141.98 3.6 Q 143.22 3.6 144.01 4.2 A 3.15 3.15 0 0 1 145.1 5.738 A 3.831 3.831 0 0 1 145.12 5.8 Q 145.74 4.88 146.59 4.24 A 3.134 3.134 0 0 1 147.948 3.663 A 4.289 4.289 0 0 1 148.7 3.6 Q 150.085 3.6 150.893 4.31 A 2.599 2.599 0 0 1 151.23 4.67 A 3.798 3.798 0 0 1 151.912 6.124 Q 152.06 6.734 152.06 7.46 L 152.06 14.24 L 150.26 14.24 L 150.26 7.6 A 3.809 3.809 0 0 0 150.193 6.862 Q 150.105 6.421 149.906 6.072 A 2.196 2.196 0 0 0 149.76 5.85 A 1.595 1.595 0 0 0 148.597 5.191 A 2.136 2.136 0 0 0 148.38 5.18 A 2.385 2.385 0 0 0 147.028 5.605 A 3.199 3.199 0 0 0 146.71 5.85 Q 145.94 6.52 145.36 7.42 L 145.36 14.24 L 143.56 14.24 L 143.56 7.6 A 3.809 3.809 0 0 0 143.493 6.862 Q 143.405 6.421 143.206 6.072 A 2.196 2.196 0 0 0 143.06 5.85 A 1.595 1.595 0 0 0 141.897 5.191 A 2.136 2.136 0 0 0 141.68 5.18 A 2.404 2.404 0 0 0 140.416 5.546 A 3.249 3.249 0 0 0 140.02 5.83 Q 139.24 6.48 138.66 7.36 L 138.66 14.24 Z M 0 13.06 L 0.96 11.46 Q 1.68 12.06 2.58 12.44 Q 3.48 12.82 4.68 12.82 A 5.596 5.596 0 0 0 5.589 12.751 Q 6.405 12.616 6.96 12.22 A 2.056 2.056 0 0 0 7.519 11.639 Q 7.782 11.218 7.799 10.673 A 2.423 2.423 0 0 0 7.8 10.6 A 2.388 2.388 0 0 0 7.733 10.021 A 1.963 1.963 0 0 0 7.56 9.57 Q 7.321 9.122 6.637 8.694 A 5.256 5.256 0 0 0 6.63 8.69 Q 5.94 8.26 4.6 7.76 Q 3.581 7.364 2.852 6.962 A 7.899 7.899 0 0 1 2.3 6.63 A 4.386 4.386 0 0 1 1.682 6.141 Q 1.29 5.763 1.07 5.33 A 3.333 3.333 0 0 1 0.766 4.396 A 4.586 4.586 0 0 1 0.7 3.6 Q 0.7 2.6 1.25 1.79 Q 1.8 0.98 2.87 0.49 A 5.112 5.112 0 0 1 4.05 0.123 Q 4.577 0.023 5.178 0.004 A 9.045 9.045 0 0 1 5.46 0 Q 6.7 0 7.69 0.25 Q 8.68 0.5 9.62 0.96 L 8.92 2.58 Q 8.24 2.18 7.33 1.91 Q 6.42 1.64 5.42 1.64 Q 4.1 1.64 3.34 2.16 A 1.98 1.98 0 0 0 2.907 2.553 A 1.472 1.472 0 0 0 2.58 3.5 A 2.093 2.093 0 0 0 2.638 4.004 A 1.712 1.712 0 0 0 2.8 4.42 A 1.382 1.382 0 0 0 3.014 4.705 Q 3.254 4.957 3.67 5.2 Q 4.32 5.58 5.62 6.06 A 16.246 16.246 0 0 1 6.616 6.466 Q 7.102 6.685 7.503 6.911 A 7.101 7.101 0 0 1 8.09 7.28 Q 8.836 7.804 9.225 8.403 A 2.846 2.846 0 0 1 9.38 8.67 A 3.516 3.516 0 0 1 9.728 9.843 A 4.431 4.431 0 0 1 9.76 10.38 A 4.342 4.342 0 0 1 9.627 11.48 A 3.421 3.421 0 0 1 9.11 12.6 A 3.924 3.924 0 0 1 7.724 13.805 A 4.871 4.871 0 0 1 7.31 14 A 6.104 6.104 0 0 1 5.828 14.401 A 8.005 8.005 0 0 1 4.68 14.48 Q 3.22 14.48 2.02 14.09 A 7.641 7.641 0 0 1 0.947 13.654 A 5.687 5.687 0 0 1 0 13.06 Z M 86.76 13.06 L 87.72 11.46 Q 88.44 12.06 89.34 12.44 Q 90.24 12.82 91.44 12.82 A 5.596 5.596 0 0 0 92.349 12.751 Q 93.165 12.616 93.72 12.22 A 2.056 2.056 0 0 0 94.279 11.639 Q 94.542 11.218 94.559 10.673 A 2.423 2.423 0 0 0 94.56 10.6 A 2.388 2.388 0 0 0 94.493 10.021 A 1.963 1.963 0 0 0 94.32 9.57 Q 94.081 9.122 93.397 8.694 A 5.256 5.256 0 0 0 93.39 8.69 Q 92.7 8.26 91.36 7.76 Q 90.341 7.364 89.612 6.962 A 7.899 7.899 0 0 1 89.06 6.63 A 4.386 4.386 0 0 1 88.442 6.141 Q 88.05 5.763 87.83 5.33 A 3.333 3.333 0 0 1 87.526 4.396 A 4.586 4.586 0 0 1 87.46 3.6 Q 87.46 2.6 88.01 1.79 Q 88.56 0.98 89.63 0.49 A 5.112 5.112 0 0 1 90.81 0.123 Q 91.337 0.023 91.938 0.004 A 9.045 9.045 0 0 1 92.22 0 Q 93.46 0 94.45 0.25 Q 95.44 0.5 96.38 0.96 L 95.68 2.58 Q 95 2.18 94.09 1.91 Q 93.18 1.64 92.18 1.64 Q 90.86 1.64 90.1 2.16 A 1.98 1.98 0 0 0 89.667 2.553 A 1.472 1.472 0 0 0 89.34 3.5 A 2.093 2.093 0 0 0 89.398 4.004 A 1.712 1.712 0 0 0 89.56 4.42 A 1.382 1.382 0 0 0 89.774 4.705 Q 90.014 4.957 90.43 5.2 Q 91.08 5.58 92.38 6.06 A 16.246 16.246 0 0 1 93.376 6.466 Q 93.862 6.685 94.263 6.911 A 7.101 7.101 0 0 1 94.85 7.28 Q 95.596 7.804 95.985 8.403 A 2.846 2.846 0 0 1 96.14 8.67 A 3.516 3.516 0 0 1 96.488 9.843 A 4.431 4.431 0 0 1 96.52 10.38 A 4.342 4.342 0 0 1 96.387 11.48 A 3.421 3.421 0 0 1 95.87 12.6 A 3.924 3.924 0 0 1 94.484 13.805 A 4.871 4.871 0 0 1 94.07 14 A 6.104 6.104 0 0 1 92.588 14.401 A 8.005 8.005 0 0 1 91.44 14.48 Q 89.98 14.48 88.78 14.09 A 7.641 7.641 0 0 1 87.707 13.654 A 5.687 5.687 0 0 1 86.76 13.06 Z M 97.12 18.48 L 97.52 16.98 Q 97.76 17.12 98.12 17.22 A 2.703 2.703 0 0 0 98.576 17.304 A 3.472 3.472 0 0 0 98.92 17.32 Q 99.76 17.32 100.42 16.78 A 2.401 2.401 0 0 0 100.807 16.368 Q 101.156 15.906 101.488 15.135 A 11.716 11.716 0 0 0 101.68 14.66 L 102.14 13.46 L 101.18 13.46 L 97.12 4.32 L 98.72 3.6 L 102.6 12.26 L 105.62 3.68 L 107.28 4.32 L 103.46 14.76 A 14.346 14.346 0 0 1 103.049 15.777 Q 102.646 16.669 102.2 17.26 Q 101.57 18.093 100.821 18.464 A 2.948 2.948 0 0 1 100.7 18.52 Q 99.88 18.88 98.88 18.88 A 6.086 6.086 0 0 1 98.871 18.88 Q 98.339 18.879 97.926 18.784 A 2.917 2.917 0 0 1 97.83 18.76 Q 97.518 18.677 97.298 18.575 A 1.723 1.723 0 0 1 97.12 18.48 Z M 49.4 0.72 L 48.82 2.32 Q 48.2 2.02 47.55 1.84 A 4.603 4.603 0 0 0 46.937 1.717 Q 46.621 1.674 46.263 1.664 A 8.141 8.141 0 0 0 46.02 1.66 A 4.235 4.235 0 0 0 44.439 1.951 A 3.996 3.996 0 0 0 43.73 2.32 Q 42.72 2.98 42.14 4.22 Q 41.56 5.46 41.56 7.22 A 8.373 8.373 0 0 0 41.683 8.691 A 6.186 6.186 0 0 0 42.13 10.16 A 5.135 5.135 0 0 0 42.847 11.326 A 4.285 4.285 0 0 0 43.71 12.12 A 3.941 3.941 0 0 0 45.939 12.819 A 4.779 4.779 0 0 0 46.02 12.82 A 6.743 6.743 0 0 0 46.814 12.776 Q 47.309 12.717 47.72 12.58 Q 48.44 12.34 49.12 11.96 L 49.7 13.54 A 7.512 7.512 0 0 1 48.801 13.949 A 9.579 9.579 0 0 1 48.01 14.21 A 6.718 6.718 0 0 1 47.017 14.408 Q 46.45 14.48 45.8 14.48 A 6.477 6.477 0 0 1 43.935 14.22 A 5.592 5.592 0 0 1 42.58 13.61 A 5.72 5.72 0 0 1 40.605 11.521 A 6.983 6.983 0 0 1 40.4 11.13 Q 39.631 9.543 39.62 7.363 A 12.563 12.563 0 0 1 39.62 7.3 Q 39.62 5.16 40.41 3.51 A 6.327 6.327 0 0 1 41.806 1.584 A 5.972 5.972 0 0 1 42.65 0.93 A 5.874 5.874 0 0 1 45.186 0.048 A 7.458 7.458 0 0 1 46.04 0 A 9.128 9.128 0 0 1 47.052 0.054 A 7.04 7.04 0 0 1 47.86 0.19 A 7.645 7.645 0 0 1 49.355 0.699 A 7.125 7.125 0 0 1 49.4 0.72 Z M 108.18 13.4 L 108.94 11.9 A 3.711 3.711 0 0 0 109.569 12.325 Q 109.877 12.493 110.244 12.628 A 6.084 6.084 0 0 0 110.25 12.63 Q 111.04 12.92 111.94 12.92 Q 113.06 12.92 113.63 12.55 A 1.49 1.49 0 0 0 113.937 12.291 A 1.01 1.01 0 0 0 114.2 11.6 A 1.425 1.425 0 0 0 114.137 11.171 A 1.242 1.242 0 0 0 113.99 10.86 Q 113.78 10.54 113.22 10.23 A 5.693 5.693 0 0 0 112.821 10.031 Q 112.329 9.808 111.6 9.56 A 9.323 9.323 0 0 1 110.72 9.211 Q 109.9 8.834 109.41 8.37 Q 108.68 7.68 108.68 6.46 A 2.424 2.424 0 0 1 109.47 4.657 A 3.493 3.493 0 0 1 109.73 4.43 Q 110.611 3.734 112.062 3.622 A 7.505 7.505 0 0 1 112.64 3.6 Q 113.64 3.6 114.42 3.81 A 7.754 7.754 0 0 1 115.247 4.081 A 6.222 6.222 0 0 1 115.82 4.34 L 115.32 5.82 A 4.906 4.906 0 0 0 114.586 5.467 A 6.038 6.038 0 0 0 114.09 5.3 A 5.005 5.005 0 0 0 113.193 5.131 A 6.367 6.367 0 0 0 112.56 5.1 Q 111.893 5.1 111.431 5.273 A 1.702 1.702 0 0 0 110.98 5.52 A 1.864 1.864 0 0 0 110.708 5.775 Q 110.568 5.938 110.501 6.113 A 0.906 0.906 0 0 0 110.44 6.44 A 0.984 0.984 0 0 0 110.739 7.15 A 1.416 1.416 0 0 0 110.86 7.26 Q 111.273 7.594 112.46 7.987 A 16.851 16.851 0 0 0 112.5 8 Q 114.48 8.66 115.26 9.46 A 2.719 2.719 0 0 1 116.037 11.309 A 3.579 3.579 0 0 1 116.04 11.46 Q 116.04 12.81 114.99 13.611 A 3.323 3.323 0 0 1 114.91 13.67 A 4.01 4.01 0 0 1 113.635 14.265 Q 113.102 14.413 112.472 14.459 A 8.084 8.084 0 0 1 111.88 14.48 Q 110.7 14.48 109.75 14.18 A 6.177 6.177 0 0 1 108.982 13.883 Q 108.586 13.697 108.27 13.467 A 3.645 3.645 0 0 1 108.18 13.4 Z M 154.26 13.4 L 155.02 11.9 A 3.711 3.711 0 0 0 155.649 12.325 Q 155.957 12.493 156.324 12.628 A 6.084 6.084 0 0 0 156.33 12.63 Q 157.12 12.92 158.02 12.92 Q 159.14 12.92 159.71 12.55 A 1.49 1.49 0 0 0 160.017 12.291 A 1.01 1.01 0 0 0 160.28 11.6 A 1.425 1.425 0 0 0 160.217 11.171 A 1.242 1.242 0 0 0 160.07 10.86 Q 159.86 10.54 159.3 10.23 A 5.693 5.693 0 0 0 158.901 10.031 Q 158.409 9.808 157.68 9.56 A 9.323 9.323 0 0 1 156.8 9.211 Q 155.98 8.834 155.49 8.37 Q 154.76 7.68 154.76 6.46 A 2.424 2.424 0 0 1 155.55 4.657 A 3.493 3.493 0 0 1 155.81 4.43 Q 156.691 3.734 158.142 3.622 A 7.505 7.505 0 0 1 158.72 3.6 Q 159.72 3.6 160.5 3.81 A 7.754 7.754 0 0 1 161.327 4.081 A 6.222 6.222 0 0 1 161.9 4.34 L 161.4 5.82 A 4.906 4.906 0 0 0 160.666 5.467 A 6.038 6.038 0 0 0 160.17 5.3 A 5.005 5.005 0 0 0 159.273 5.131 A 6.367 6.367 0 0 0 158.64 5.1 Q 157.973 5.1 157.511 5.273 A 1.702 1.702 0 0 0 157.06 5.52 A 1.864 1.864 0 0 0 156.788 5.775 Q 156.648 5.938 156.581 6.113 A 0.906 0.906 0 0 0 156.52 6.44 A 0.984 0.984 0 0 0 156.819 7.15 A 1.416 1.416 0 0 0 156.94 7.26 Q 157.353 7.594 158.54 7.987 A 16.851 16.851 0 0 0 158.58 8 Q 160.56 8.66 161.34 9.46 A 2.719 2.719 0 0 1 162.117 11.309 A 3.579 3.579 0 0 1 162.12 11.46 Q 162.12 12.81 161.07 13.611 A 3.323 3.323 0 0 1 160.99 13.67 A 4.01 4.01 0 0 1 159.715 14.265 Q 159.182 14.413 158.552 14.459 A 8.084 8.084 0 0 1 157.96 14.48 Q 156.78 14.48 155.83 14.18 A 6.177 6.177 0 0 1 155.062 13.883 Q 154.666 13.697 154.35 13.467 A 3.645 3.645 0 0 1 154.26 13.4 Z M 134.4 9.78 L 127.12 9.78 A 4.818 4.818 0 0 0 127.348 10.785 Q 127.586 11.464 128.028 11.945 A 2.996 2.996 0 0 0 128.14 12.06 A 2.829 2.829 0 0 0 129.665 12.822 A 4.004 4.004 0 0 0 130.36 12.88 Q 131.26 12.88 131.98 12.69 Q 132.7 12.5 133.36 12.2 L 133.78 13.74 A 8.154 8.154 0 0 1 132.913 14.065 A 10.373 10.373 0 0 1 132.16 14.27 Q 131.26 14.48 130.14 14.48 A 5.664 5.664 0 0 1 128.591 14.279 A 4.222 4.222 0 0 1 126.59 13.05 A 4.704 4.704 0 0 1 125.549 11.142 Q 125.347 10.442 125.297 9.61 A 9.425 9.425 0 0 1 125.28 9.04 A 7.072 7.072 0 0 1 125.447 7.476 A 5.768 5.768 0 0 1 125.87 6.25 A 4.928 4.928 0 0 1 126.873 4.834 A 4.577 4.577 0 0 1 127.52 4.31 A 4.21 4.21 0 0 1 129.572 3.616 A 5.241 5.241 0 0 1 129.98 3.6 A 5.711 5.711 0 0 1 131.074 3.699 Q 131.743 3.83 132.277 4.132 A 3.443 3.443 0 0 1 132.47 4.25 Q 133.46 4.9 133.96 6 A 5.637 5.637 0 0 1 134.445 7.973 A 6.687 6.687 0 0 1 134.46 8.42 A 15.041 15.041 0 0 1 134.402 9.759 A 14.117 14.117 0 0 1 134.4 9.78 Z M 12.76 10.66 L 12.76 5.78 L 10.96 5.78 L 10.96 4.22 L 12.8 4.22 L 13.18 0.94 L 14.56 0.94 L 14.56 4.22 L 17.44 4.22 L 17.44 5.78 L 14.56 5.78 L 14.56 10.8 Q 14.56 11.828 14.945 12.306 A 1.111 1.111 0 0 0 15.05 12.42 Q 15.54 12.88 16.22 12.88 Q 16.72 12.88 17.17 12.72 Q 17.62 12.56 18 12.34 L 18.5 13.78 A 3.709 3.709 0 0 1 18.176 13.951 Q 18.016 14.027 17.827 14.102 A 8.673 8.673 0 0 1 17.42 14.25 Q 16.74 14.48 16 14.48 A 3.665 3.665 0 0 1 14.964 14.341 A 2.787 2.787 0 0 1 13.63 13.49 Q 12.76 12.5 12.76 10.66 Z M 118.84 10.66 L 118.84 5.78 L 117.04 5.78 L 117.04 4.22 L 118.88 4.22 L 119.26 0.94 L 120.64 0.94 L 120.64 4.22 L 123.52 4.22 L 123.52 5.78 L 120.64 5.78 L 120.64 10.8 Q 120.64 11.828 121.025 12.306 A 1.111 1.111 0 0 0 121.13 12.42 Q 121.62 12.88 122.3 12.88 Q 122.8 12.88 123.25 12.72 Q 123.7 12.56 124.08 12.34 L 124.58 13.78 A 3.709 3.709 0 0 1 124.256 13.951 Q 124.096 14.027 123.907 14.102 A 8.673 8.673 0 0 1 123.5 14.25 Q 122.82 14.48 122.08 14.48 A 3.665 3.665 0 0 1 121.044 14.341 A 2.787 2.787 0 0 1 119.71 13.49 Q 118.84 12.5 118.84 10.66 Z M 27.02 4.68 L 27.02 3.84 L 28.66 3.84 L 28.66 11.72 A 2.43 2.43 0 0 0 28.68 12.047 Q 28.747 12.534 29.03 12.71 Q 29.4 12.94 29.84 12.94 L 29.46 14.34 A 4.683 4.683 0 0 1 29.43 14.34 Q 27.559 14.328 27.149 12.816 A 2.755 2.755 0 0 1 27.14 12.78 A 4.261 4.261 0 0 1 26.518 13.465 A 5.7 5.7 0 0 1 25.89 13.95 Q 25.1 14.48 23.88 14.48 Q 22.58 14.48 21.52 13.82 Q 20.46 13.16 19.83 11.95 A 5.446 5.446 0 0 1 19.304 10.362 A 7.329 7.329 0 0 1 19.2 9.1 A 6.628 6.628 0 0 1 19.399 7.446 A 5.594 5.594 0 0 1 19.83 6.3 Q 20.46 5.06 21.57 4.33 A 4.459 4.459 0 0 1 23.809 3.609 A 5.478 5.478 0 0 1 24.12 3.6 A 4.517 4.517 0 0 1 25.079 3.698 A 3.741 3.741 0 0 1 25.75 3.91 A 5.2 5.2 0 0 1 26.607 4.369 A 4.421 4.421 0 0 1 27.02 4.68 Z M 34.04 14.24 L 32.24 14.24 L 32.24 3.84 L 33.98 3.84 L 33.98 6.1 Q 34.24 5.44 34.68 4.87 Q 35.12 4.3 35.78 3.95 A 2.963 2.963 0 0 1 36.716 3.645 A 3.892 3.892 0 0 1 37.32 3.6 Q 37.62 3.6 37.92 3.63 A 3.794 3.794 0 0 1 38.131 3.657 Q 38.231 3.672 38.316 3.693 A 1.763 1.763 0 0 1 38.42 3.72 L 37.88 5.58 Q 37.517 5.427 37.027 5.42 A 3.318 3.318 0 0 0 36.98 5.42 A 2.592 2.592 0 0 0 35.654 5.789 A 3.122 3.122 0 0 0 35.57 5.84 A 2.68 2.68 0 0 0 34.876 6.479 Q 34.655 6.764 34.476 7.128 A 4.585 4.585 0 0 0 34.47 7.14 A 3.864 3.864 0 0 0 34.176 8.002 Q 34.04 8.615 34.04 9.38 L 34.04 14.24 Z M 54.152 14.212 A 5.443 5.443 0 0 0 55.88 14.48 A 6.145 6.145 0 0 0 56.335 14.463 A 5.051 5.051 0 0 0 58.53 13.8 Q 59.7 13.12 60.38 11.89 A 5.251 5.251 0 0 0 60.911 10.462 A 6.837 6.837 0 0 0 61.06 9 A 6.908 6.908 0 0 0 60.963 7.818 A 5.159 5.159 0 0 0 60.37 6.13 Q 59.68 4.92 58.51 4.26 A 4.97 4.97 0 0 0 57.582 3.855 A 5.548 5.548 0 0 0 55.88 3.6 A 6.265 6.265 0 0 0 55.564 3.608 A 5.234 5.234 0 0 0 53.24 4.26 Q 52.06 4.92 51.38 6.14 A 5.205 5.205 0 0 0 50.83 7.658 A 7.001 7.001 0 0 0 50.7 9.04 A 6.964 6.964 0 0 0 50.753 9.911 A 5.49 5.49 0 0 0 51.37 11.87 Q 52.04 13.1 53.22 13.79 A 4.912 4.912 0 0 0 54.152 14.212 Z M 55.88 12.88 Q 57.46 12.88 58.34 11.81 A 3.76 3.76 0 0 0 59.104 10.192 A 5.421 5.421 0 0 0 59.22 9.04 Q 59.22 8 58.78 7.13 A 3.84 3.84 0 0 0 57.946 6.016 A 3.634 3.634 0 0 0 57.59 5.73 Q 56.84 5.2 55.88 5.2 A 3.85 3.85 0 0 0 54.835 5.334 A 2.807 2.807 0 0 0 53.42 6.24 A 3.576 3.576 0 0 0 52.685 7.715 Q 52.554 8.246 52.541 8.87 A 6.574 6.574 0 0 0 52.54 9 Q 52.54 10.04 52.98 10.93 A 3.887 3.887 0 0 0 53.686 11.938 A 3.525 3.525 0 0 0 54.17 12.35 Q 54.92 12.88 55.88 12.88 Z M 26.86 11.58 L 26.86 6 Q 26.32 5.62 25.67 5.39 Q 25.02 5.16 24.3 5.16 A 3.185 3.185 0 0 0 23.306 5.311 A 2.805 2.805 0 0 0 22.61 5.65 A 3.26 3.26 0 0 0 21.606 6.735 A 3.992 3.992 0 0 0 21.46 7.01 A 4.133 4.133 0 0 0 21.109 8.145 A 5.536 5.536 0 0 0 21.04 9.04 Q 21.04 10.16 21.46 11.03 A 3.52 3.52 0 0 0 22.081 11.939 A 3.139 3.139 0 0 0 22.62 12.39 Q 23.36 12.88 24.28 12.88 Q 25.04 12.88 25.72 12.51 Q 26.4 12.14 26.86 11.58 Z M 127.1 8.32 L 132.8 8.32 Q 132.8 7.216 132.399 6.481 A 2.484 2.484 0 0 0 132.04 5.98 A 2.498 2.498 0 0 0 130.648 5.225 A 3.679 3.679 0 0 0 129.94 5.16 A 2.716 2.716 0 0 0 128.918 5.347 A 2.505 2.505 0 0 0 128.02 5.97 Q 127.387 6.644 127.171 7.824 A 6.404 6.404 0 0 0 127.1 8.32 Z" vector-effect="non-scaling-stroke"/>

    <!-- Symbol -->
    <path d="m301.094 89.774 4.082-7.102a25 25 0 0 1 43.347-.002l166.809 290.105-293.689-.156 20.218-34.967h205.916L301.094 89.774Z" 
      style="fill:url(#a)" 
      transform="translate(40.971 -29.826) scale(.42536)"/>
    <path d="M361.69 426.971a25 25 0 0 1-21.673 37.462l-339.739.001 148.92-261.74 16.929 29.179L60.812 414.256l293.668.177 7.21 12.538Z" 
      style="fill:url(#b)" 
      transform="translate(109.392 -47.55) scale(.42536)"/>
    <path d="M14.174 334.798a25 25 0 0 1-21.672-37.462L162.44 1.802l146.682 247.884-35.275-.006-102.45-176.622-148.919 261.74h-8.304Z" 
      style="fill:url(#c)" 
      transform="translate(99.952 7.588) scale(.42536)"/>
    <defs>
      <linearGradient id="a" x1="0" x2="1" y1="0" y2="0" gradientTransform="scale(-330.8733) rotate(-14.765 -4.624 4.71)" gradientUnits="userSpaceOnUse">
        <stop offset="0" style="stop-color:#4A6CF7;stop-opacity:1"/>
        <stop offset="1" style="stop-color:black;stop-opacity:0"/>
      </linearGradient>
      <linearGradient id="b" x1="0" x2="1" y1="0" y2="0" gradientTransform="rotate(-69.857 327.12 163.693) scale(322.359)" gradientUnits="userSpaceOnUse">
        <stop offset="0" style="stop-color:#4A6CF7;stop-opacity:1"/>
        <stop offset="1" style="stop-color:black;stop-opacity:0"/>
      </linearGradient>
      <linearGradient id="c" x1="0" x2="1" y1="0" y2="0" gradientTransform="scale(332.267) rotate(51.974 .033 .64)" gradientUnits="userSpaceOnUse">
        <stop offset="0" style="stop-color:#4A6CF7;stop-opacity:1"/>
        <stop offset="1" style="stop-color:black;stop-opacity:0"/>
      </linearGradient>
    </defs>


  
  

  <!-- <g fill="#4a6cf7"> -->
    
    
    <!-- <path d="m0 0c13.8071 0 25 11.1929 25 25h-23c-1.10457 0-2-.8954-2-2z"/>
    <path d="m6 25c0-13.8071 11.1929-25 25-25v23c0 1.1046-.8954 2-2 2z" opacity=".5"/> -->
  
  </g>
</svg>